<?xml version="1.0" encoding="utf-8"?>
<!-- Generator: Adobe Illustrator 27.0.0, SVG Export Plug-In . SVG Version: 6.00 Build 0)  -->
<svg version="1.1" id="Pictogram" xmlns="http://www.w3.org/2000/svg" xmlns:xlink="http://www.w3.org/1999/xlink" x="0px" y="0px"
	 viewBox="0 0 144 144" style="enable-background:new 0 0 144 144;" xml:space="preserve">
<style type="text/css">
	.st0{fill:none;}
</style>
<g>
	<path d="M60.1,67.4l-47.3,47.3c-2,2-2,5.3,0,7.3c2,2,5.3,2,7.3,0l20.3-20.3h41.5c1.3,0,2.6-0.5,3.6-1.5c1-1,1.5-2.3,1.5-3.6
		c0-1.3-0.5-2.6-1.5-3.6L60.1,67.4z M60.1,81.9l9.4,9.4H50.7L60.1,81.9z"/>
	<path d="M129.6,51c-2-2-5.3-2-7.3,0l-9.1,9.1L80.8,27.8c-0.9-0.9-2.2-1.5-3.6-1.5c-1.4,0-2.7,0.6-3.6,1.5L59,42.3c-2,2-2,5.3,0,7.3
		c2,2,5.3,2,7.3,0l10.9-10.9l5.8,5.8L63.7,63.7l16.4,16.4l19.3-19.3l10.2,10.2c2,2,5.3,2,7.3,0l12.8-12.8
		C131.6,56.3,131.6,53,129.6,51z"/>
	<circle cx="108" cy="36" r="9"/>
</g>
<rect class="st0" width="144" height="144"/>
</svg>
