<?xml version="1.0" encoding="utf-8"?>
<!-- Generator: Adobe Illustrator 27.0.0, SVG Export Plug-In . SVG Version: 6.00 Build 0)  -->
<svg version="1.1" id="Pictogram" xmlns="http://www.w3.org/2000/svg" xmlns:xlink="http://www.w3.org/1999/xlink" x="0px" y="0px"
	 viewBox="0 0 144 144" style="enable-background:new 0 0 144 144;" xml:space="preserve">
<style type="text/css">
	.st0{fill:none;}
</style>
<g>
	<path d="M64.3,25.8c2.6,0,5.3-1,7.3-3c4-4,4-10.6,0-14.7c-4-4-10.6-4-14.7,0s-4,10.6,0,14.7C59,24.8,61.6,25.8,64.3,25.8z M58.9,10
		c1.5-1.5,3.4-2.2,5.4-2.2c2,0,3.9,0.7,5.4,2.2c3,3,3,7.8,0,10.8c-3,3-7.8,3-10.8,0C55.9,17.9,55.9,13,58.9,10z"/>
	<path d="M119.4,97.6L94,72.1l-7.3,7.3l23.9,23.9v28.8c0.1,2.8,2.3,5,5.1,5s5.1-2.2,5.1-5v-30.9C121,100,120.5,98.6,119.4,97.6z"/>
	<path d="M74,84.9l16.4-16.4L68.5,46.7L94,21.2c2-2,2-5.3,0-7.3s-5.3-2-7.3,0L34,66.7L23.1,55.8c-2-2-5.3-2-7.3,0s-2,5.3,0,7.3
		l14.5,14.5c2,2,5.3,2,7.3,0l14.5-14.5L74,84.9z"/>
	<circle cx="45" cy="37.3" r="9"/>
	<path d="M86.6,79.5L76.3,89.8v21.8l-18.5,18.5c-2,2-2,5.3,0,7.3s5.3,2,7.3,0l20-20c1-1,1.5-2.3,1.5-3.6L86.6,79.5z"/>
</g>
<rect class="st0" width="144" height="144"/>
</svg>
