<?xml version="1.0" encoding="utf-8"?>
<!-- Generator: Adobe Illustrator 27.0.0, SVG Export Plug-In . SVG Version: 6.00 Build 0)  -->
<svg version="1.1" id="Pictogram" xmlns="http://www.w3.org/2000/svg" xmlns:xlink="http://www.w3.org/1999/xlink" x="0px" y="0px"
	 viewBox="0 0 144 144" style="enable-background:new 0 0 144 144;" xml:space="preserve">
<style type="text/css">
	.st0{fill:none;}
</style>
<g>
	<path d="M92.8,83.5h-40v23.9l-24.5,14.1c-2.5,1.4-3.3,4.6-1.9,7c1.4,2.5,4.6,3.3,7,1.9l27-15.6c1.7-1,2.6-2.8,2.6-4.6V93.8h24.6
		v32.1c0,2.8,2.3,5.1,5.1,5.1s5.1-2.3,5.1-5.1V88.7C97.9,85.8,95.6,83.5,92.8,83.5z"/>
	<path d="M115.8,41.3c-1-1-2.3-1.5-3.6-1.5H55.5c-1.3,0-2.7,0.5-3.7,1.5L31.4,61.8c-2,2-2,5.3,0,7.3c1,1,2.3,1.5,3.6,1.5h18v7.8
		h23.1V50.1h36c1.3,0,2.6-0.5,3.6-1.5c1-1,1.5-2.3,1.5-3.6C117.3,43.6,116.8,42.3,115.8,41.3z M47.4,60.3l5.5-5.5v5.5H47.4z"/>
	<ellipse cx="65.5" cy="27" rx="9" ry="9"/>
</g>
<rect class="st0" width="144" height="144"/>
</svg>
